<?xml version="1.0" standalone="no"?>
<!DOCTYPE svg PUBLIC "-//W3C//DTD SVG 20010904//EN"
 "http://www.w3.org/TR/2001/REC-SVG-20010904/DTD/svg10.dtd">
<svg version="1.0" xmlns="http://www.w3.org/2000/svg"
 width="88.000000pt" height="88.000000pt" viewBox="0 0 88.000000 88.000000"
 preserveAspectRatio="xMidYMid meet">
<metadata>
Created by potrace 1.14, written by Peter Selinger 2001-2017
</metadata>
<g transform="translate(0.000000,88.000000) scale(0.100000,-0.100000)"
fill="#000000" stroke="none">
<path d="M305 847 c-22 -8 -54 -21 -71 -30 -38 -19 -114 -86 -114 -100 0 -5
-14 -25 -30 -44 -34 -38 -39 -63 -12 -63 15 -1 15 -2 -3 -15 -11 -8 -26 -19
-33 -25 -14 -13 -16 -66 -2 -75 15 -9 12 -25 -5 -25 -18 0 -20 -38 -4 -94 12
-43 21 -39 39 17 11 34 51 82 107 127 10 8 30 16 43 17 78 7 110 7 110 2 0 -4
11 -10 25 -13 14 -4 43 -23 65 -42 l40 -36 42 25 c58 34 78 58 99 119 15 43
18 47 19 25 0 -71 -73 -161 -144 -177 -29 -6 -36 -5 -41 10 -7 23 -112 70
-156 70 -18 0 -48 -5 -66 -12 l-34 -12 33 -16 c25 -11 37 -27 51 -65 14 -39
26 -55 58 -73 35 -20 40 -27 35 -48 -4 -16 -2 -26 8 -30 9 -4 13 -17 12 -38
-4 -47 -13 -58 -37 -46 -15 8 -18 19 -16 45 3 22 -1 39 -10 47 -8 6 -12 21 -9
32 4 16 -5 27 -40 48 -24 15 -46 33 -48 40 -24 91 -43 105 -85 64 -40 -39 -65
-105 -58 -155 7 -52 43 -124 84 -166 29 -30 36 -33 58 -23 28 13 60 4 48 -14
-16 -26 -10 -37 28 -52 94 -38 221 -30 323 20 58 28 149 101 141 114 -2 4 4
15 14 24 10 9 34 49 52 89 31 66 34 80 34 170 0 54 -4 101 -10 105 -5 4 -11
14 -13 22 -17 76 -109 177 -204 225 -39 19 -80 35 -92 35 -19 -1 -19 -2 7 -21
15 -11 27 -25 27 -30 0 -5 9 -18 21 -30 19 -19 22 -19 38 -5 24 21 49 22 31 1
-7 -8 -9 -15 -5 -15 4 0 2 -6 -4 -13 -6 -8 -7 -18 -3 -23 4 -4 0 -3 -9 4 -9 6
-18 9 -21 6 -3 -3 -21 16 -39 41 -19 26 -52 56 -74 67 -49 26 -146 32 -200 15z
m404 -198 c18 -24 51 -99 51 -116 0 -2 -11 -2 -24 0 -40 5 -113 126 -90 149
11 12 42 -5 63 -33z m-198 -15 c-5 -16 -10 -21 -10 -12 -1 18 10 51 15 45 2
-1 -1 -16 -5 -33z m-244 0 c-3 -3 -12 -4 -19 -1 -8 3 -5 6 6 6 11 1 17 -2 13
-5z m-22 -24 c-3 -5 -11 -10 -16 -10 -6 0 -7 5 -4 10 3 6 11 10 16 10 6 0 7
-4 4 -10z m-114 -98 c-20 -20 -49 -53 -64 -72 l-28 -35 18 33 c10 18 35 50 55
72 20 21 34 41 30 44 -3 4 1 4 9 1 13 -5 9 -13 -20 -43z m375 -299 c11 -12 13
-18 5 -21 -13 -4 -41 16 -41 29 0 14 17 10 36 -8z"/>
</g>
</svg>
